<svg width="173" height="44" viewBox="0 0 173 44" fill="none" xmlns="http://www.w3.org/2000/svg">
<path d="M25.1518 33.2639V40.3199C25.1518 42.3839 23.9038 43.7279 22.1278 43.4399C17.8558 42.7679 14.2558 40.7039 12.5278 37.8239C10.9918 40.7519 7.29585 42.8159 2.97585 43.4399C1.24785 43.7279 -0.00015226 42.3839 -0.00015226 40.3199V33.2639C-0.00015226 31.6319 0.863848 30.2879 2.83185 28.7999C4.51185 27.5519 5.42385 25.1999 5.42385 21.2159V13.6319H3.02385C1.19985 13.6319 -0.00015226 12.2879 -0.00015226 10.2719V4.41589C-0.00015226 2.39989 1.19985 1.05589 3.02385 1.05589H22.1278C23.9518 1.05589 25.1518 2.39989 25.1518 4.41589V10.2719C25.1518 12.2879 23.9518 13.6319 22.1278 13.6319H19.7278V21.2159C19.7278 25.1999 20.6398 27.5519 22.3198 28.7999C24.2878 30.2879 25.1518 31.6319 25.1518 33.2639ZM40.6558 4.41589V40.3199C40.6558 42.3359 39.4558 43.6799 37.6319 43.6799H29.3758C27.5518 43.6799 26.3518 42.3359 26.3518 40.3199V4.41589C26.3518 2.39989 27.5518 1.05589 29.3758 1.05589H37.6319C39.4558 1.05589 40.6558 2.39989 40.6558 4.41589ZM48.4986 26.7359H46.6746C44.8506 26.7359 43.6506 25.3919 43.6506 23.3759V21.4079C43.6506 19.3919 44.8506 18.0479 46.6746 18.0479H66.8346C68.6586 18.0479 69.8586 19.3919 69.8586 21.4079V23.3759C69.8586 25.3919 68.6586 26.7359 66.8346 26.7359H61.9866V30.3359C61.9866 32.3519 60.7866 33.6959 58.9626 33.6959H55.8426C56.7066 34.3679 57.5226 34.8959 58.5306 34.8959H80.8506C82.6746 34.8959 83.8746 36.2399 83.8746 38.2559V40.3199C83.8746 42.3359 82.6746 43.6799 80.8506 43.6799H46.6746C44.8506 43.6799 43.6506 42.3359 43.6506 40.3199V34.4639C43.6506 32.4479 44.8506 31.1039 46.6746 31.1039H48.4986V26.7359ZM83.8746 4.41589V30.3359C83.8746 32.3519 82.6746 33.6959 80.8506 33.6959H65.5386C64.2426 33.6959 63.3786 32.7359 63.3786 31.2959V30.0959C63.3786 28.6559 64.2426 27.6959 65.5386 27.6959H71.2986V4.41589C71.2986 2.39989 72.4986 1.05589 74.3226 1.05589H80.8506C82.6746 1.05589 83.8746 2.39989 83.8746 4.41589ZM70.0026 11.4239C69.5706 14.5919 66.3546 16.7999 63.1866 17.0399C58.2426 17.4719 54.3546 17.4239 49.8906 17.0399C46.6266 16.7519 44.0346 14.5919 43.5546 11.4239C43.2666 9.69589 43.2666 8.44789 43.5546 6.76789C44.0826 3.45589 46.6266 1.29589 49.8906 1.05589C54.3546 0.767887 58.2426 0.719888 63.1866 1.05589C66.3546 1.24789 69.5226 3.45589 70.0026 6.76789C70.2906 8.44789 70.2906 9.69589 70.0026 11.4239ZM56.0346 11.1839H57.4746C57.8106 9.79189 57.8106 8.35189 57.4746 6.91189H56.0346C56.3706 8.35189 56.3706 9.79189 56.0346 11.1839ZM126.037 23.6159V30.9119C126.037 32.9279 124.837 34.2719 123.013 34.2719H117.109C115.285 34.2719 114.085 32.9279 114.085 30.9119V4.41589C114.085 2.39989 115.285 1.05589 117.109 1.05589H123.013C124.837 1.05589 126.037 2.39989 126.037 4.41589V8.44789C126.037 10.4639 129.013 10.3679 129.013 12.3839V19.6799C129.013 21.6959 126.037 21.5999 126.037 23.6159ZM126.037 38.8319V40.3199C126.037 42.3359 124.837 43.6799 123.013 43.6799H89.8933C88.0693 43.6799 86.8693 42.3359 86.8693 40.3199V33.6479C86.8693 31.6319 88.0693 30.2879 89.8933 30.2879H96.2773C99.2053 30.2879 99.8293 35.4719 102.757 35.4719H123.013C124.837 35.4719 126.037 36.8159 126.037 38.8319ZM112.789 22.4639C112.357 27.0239 109.333 29.1359 106.261 29.4719C101.749 29.9039 97.8613 29.9039 93.3973 29.4719C90.1813 29.1359 87.3013 27.0239 86.8693 22.4639C86.6773 20.6399 86.6773 19.5359 86.8693 17.8079C87.3013 13.1039 90.1813 11.1839 93.3973 10.8479C97.8613 10.4159 101.749 10.4159 106.261 10.8479C109.333 11.1839 112.357 13.1039 112.789 17.8079C112.981 19.5359 112.981 20.6399 112.789 22.4639ZM99.3973 22.2239H100.741C101.221 21.1679 101.221 19.3919 100.741 18.2879H99.3973C99.8293 19.3919 99.8293 21.1679 99.3973 22.2239ZM112.789 5.47189V7.00789C112.789 8.73589 111.781 9.88789 110.245 9.88789H89.4133C87.8293 9.88789 86.8213 8.73589 86.8213 7.00789V5.47189C86.8213 3.74389 87.8293 2.59189 89.4133 2.59189H91.4773C93.3013 2.59189 94.6453 -0.000114441 96.4213 -0.000114441H102.901C104.725 -0.000114441 106.069 2.59189 107.845 2.59189H110.197C111.781 2.59189 112.789 3.74389 112.789 5.47189ZM169.256 35.9519V40.3199C169.256 42.3359 168.056 43.6799 166.232 43.6799H133.112C131.288 43.6799 130.088 42.3359 130.088 40.3199V31.0559C130.088 29.0399 131.288 27.6959 133.112 27.6959H139.496C142.424 27.6959 143.672 32.5919 146.6 32.5919H166.232C168.056 32.5919 169.256 33.9359 169.256 35.9519ZM169.256 21.6959V28.0319C169.256 30.0479 168.056 31.3919 166.232 31.3919H160.328C158.504 31.3919 157.304 30.0479 157.304 28.0319V4.41589C157.304 2.39989 158.504 1.05589 160.328 1.05589H166.232C168.056 1.05589 169.256 2.39989 169.256 4.41589V6.52789C169.256 8.54389 172.232 8.44789 172.232 10.4639V17.7599C172.232 19.7759 169.256 19.6799 169.256 21.6959ZM156.296 19.1519V23.1359C156.296 25.1519 155.096 26.4959 153.272 26.4959H133.112C131.288 26.4959 130.088 25.1519 130.088 23.1359V19.1519C130.088 17.9999 131.384 17.1359 131.384 15.9839V14.5919C131.384 12.5759 132.584 11.2319 134.408 11.2319H139.688C141.512 11.2319 142.712 12.5759 142.712 14.5919V17.2319H143.912V14.5919C143.912 12.5759 145.112 11.2319 146.936 11.2319H152.216C154.04 11.2319 155.24 12.5759 155.24 14.5919V15.6959C155.24 16.8479 156.296 17.9999 156.296 19.1519ZM156.296 4.41589V6.91189C156.296 8.92789 155.096 10.2719 153.272 10.2719H133.112C131.288 10.2719 130.088 8.92789 130.088 6.91189V4.41589C130.088 2.39989 131.288 1.05589 133.112 1.05589H153.272C155.096 1.05589 156.296 2.39989 156.296 4.41589Z" fill="#32C87B"/>
</svg>
